<svg xmlns="http://www.w3.org/2000/svg" viewBox="0 0 1600 900" preserveAspectRatio="xMidYMid slice">
  <defs>
    <linearGradient id="sky" x1="0" x2="1" y1="0" y2="1">
      <stop offset="0" stop-color="#d7ece4"/>
      <stop offset="0.34" stop-color="#238d8d"/>
      <stop offset="0.72" stop-color="#076d78"/>
      <stop offset="1" stop-color="#034f59"/>
    </linearGradient>
    <radialGradient id="sun" cx="24%" cy="20%" r="48%">
      <stop offset="0" stop-color="#fff8df" stop-opacity="0.88"/>
      <stop offset="0.42" stop-color="#f7edcf" stop-opacity="0.28"/>
      <stop offset="1" stop-color="#f7edcf" stop-opacity="0"/>
    </radialGradient>
    <filter id="blurCloud" x="-40%" y="-40%" width="180%" height="180%">
      <feGaussianBlur stdDeviation="28"/>
    </filter>
    <filter id="soft" x="-30%" y="-30%" width="160%" height="160%">
      <feGaussianBlur stdDeviation="10"/>
    </filter>
  </defs>

  <rect width="1600" height="900" fill="url(#sky)"/>
  <rect width="1600" height="900" fill="url(#sun)"/>

  <g filter="url(#blurCloud)" opacity="0.72">
    <ellipse cx="130" cy="128" rx="220" ry="68" fill="#f8f0df"/>
    <ellipse cx="454" cy="204" rx="260" ry="74" fill="#e8efe6" opacity="0.75"/>
    <ellipse cx="1020" cy="214" rx="220" ry="58" fill="#eef0e5" opacity="0.55"/>
    <ellipse cx="1480" cy="118" rx="260" ry="72" fill="#d6e7df" opacity="0.55"/>
    <ellipse cx="210" cy="650" rx="280" ry="82" fill="#fff9e9" opacity="0.7"/>
    <ellipse cx="760" cy="622" rx="210" ry="62" fill="#f7f1df" opacity="0.48"/>
  </g>

  <g opacity="0.45">
    <path d="M0 682c142-72 324-66 492-28 200 45 350 39 520-46 210-104 400-76 588 6v286H0z" fill="#064c53" opacity="0.36"/>
    <path d="M0 732c190-60 330-36 500 2 236 52 418 0 600-64 174-62 333-52 500 4v226H0z" fill="#073e45" opacity="0.42"/>
  </g>

  <g transform="translate(1115 320)" opacity="0.9">
    <circle cx="142" cy="116" r="54" fill="#6b4b36"/>
    <path d="M88 113c21-69 91-88 148-46 14 10 27 26 35 46-42-12-86-17-183 0z" fill="#c86656"/>
    <path d="M74 227c13-76 68-117 132-106 73 13 116 80 104 166l-236-60z" fill="#efd8c9"/>
    <path d="M30 430c18-116 83-201 169-221 102 42 154 114 165 221H30z" fill="#f4d8cc"/>
    <path d="M142 170c24 12 50 10 76-4-4 42-16 65-41 68-23-3-33-25-35-64z" fill="#6b4b36" opacity="0.76"/>
    <path d="M94 146c38 22 97 24 151-5" fill="none" stroke="#2c211b" stroke-width="5" stroke-linecap="round" opacity="0.36"/>
  </g>

  <g transform="translate(885 615)" filter="url(#soft)" opacity="0.76">
    <rect x="0" y="0" width="70" height="178" rx="28" fill="#dff9f4" opacity="0.5"/>
    <rect x="9" y="12" width="52" height="154" rx="21" fill="#ffffff" opacity="0.22"/>
    <path d="M16 54c18 14 36 10 48-2v86c-17-8-34-6-48 1z" fill="#b9efe4" opacity="0.62"/>
  </g>

  <rect width="1600" height="900" fill="#052f35" opacity="0.18"/>
</svg>
